<?xml version='1.0' encoding='utf-8'?>
<svg xmlns="http://www.w3.org/2000/svg" version="1.1" id="Logo" x="0px" y="0px" viewBox="0 0 400 400" style="enable-background:new 0 0 400 400;"> <style type="text/css"> .st0{fill:#AA0000;} .st1{fill:#F4E8D7;stroke:#262626;stroke-width:2;} .st2{fill:#262626;} </style> <circle class="st0" cx="200.1" cy="200" r="198.1"/> <circle class="st1" cx="210.4" cy="200" r="186.9"/> <path class="st2" d="M195.4,169.1c0.3,0.8,0.6,1.7,0.8,2.5c0.2,0.9,0.3,1.7,0.5,2.6c0.2,1.8,0.2,3.6-0.1,5.4 c-0.1,0.9-0.3,1.8-0.6,2.7c-0.3,0.9-0.6,1.8-1,2.6c-0.8,1.7-1.9,3.3-3.2,4.7c-2.6,2.7-5.7,4.6-9,5.8c-1.6,0.6-3.3,1-5,1.4 c-0.8,0.2-1.7,0.3-2.5,0.4c-0.9,0.1-1.7,0.1-2.6,0.1c0.7-0.6,1.3-1.1,2-1.6c0.7-0.5,1.4-1,2.1-1.5l4-2.8c1.3-0.9,2.5-1.8,3.7-2.8 c1.2-0.9,2.3-1.9,3.2-3c1-1.1,1.9-2.2,2.6-3.3c0.4-0.6,0.7-1.2,1.1-1.9c0.3-0.7,0.7-1.3,0.9-2c0.6-1.4,1.1-2.9,1.6-4.5 c0.2-0.8,0.5-1.6,0.7-2.4C194.8,170.7,195.1,169.9,195.4,169.1z"/> <path class="st2" d="M228.9,247.9c1.8-0.3,3.6-0.6,5.4-0.8c1.8-0.2,3.6-0.4,5.4-0.6c3.6-0.4,7.1-0.6,10.7-0.8 c7.1-0.4,14.3-0.6,21.4-0.6s14.3,0.2,21.4,0.6c3.6,0.2,7.1,0.5,10.7,0.8c1.8,0.2,3.6,0.4,5.4,0.6c1.8,0.2,3.6,0.5,5.4,0.8 c-1.8,0.3-3.6,0.6-5.4,0.8c-1.8,0.2-3.6,0.4-5.4,0.6c-3.6,0.4-7.1,0.6-10.7,0.8c-7.1,0.4-14.3,0.6-21.4,0.6 c-7.1,0-14.3-0.2-21.4-0.6c-3.6-0.2-7.1-0.5-10.7-0.8c-1.8-0.2-3.6-0.4-5.4-0.6C232.5,248.4,230.7,248.2,228.9,247.9z"/> <path class="st2" d="M125.1,248.2c1.8-1.2,3.8-2.3,5.9-3.1c0.5-0.2,1-0.4,1.6-0.6l1.6-0.5c0.5-0.2,1.1-0.3,1.6-0.4 c0.5-0.1,1.1-0.3,1.6-0.4c2.2-0.5,4.4-0.8,6.6-1c1.1-0.1,2.2-0.2,3.3-0.2c0.6,0,1.1-0.1,1.7-0.1c0.6,0,1.1,0,1.7,0 c2.2,0,4.4,0,6.6,0c2.2,0,4.3,0.1,6.5,0.1c2.2,0,4.3,0.1,6.5,0.2l6.5,0.3c8.7,0.4,17.3,1,26,1.8c4.3,0.4,8.6,0.9,13,1.4 c2.2,0.3,4.3,0.6,6.5,0.9c2.2,0.3,4.3,0.7,6.5,1.1c-2.2,0.2-4.4,0.4-6.5,0.5c-2.2,0.1-4.4,0.2-6.5,0.3c-4.4,0.2-8.7,0.2-13,0.3 c-8.7,0-17.4-0.2-26-0.6l-6.5-0.3c-2.2-0.1-4.3-0.3-6.5-0.4c-4.3-0.3-8.7-0.7-12.9-1c-1.1-0.1-2.1-0.2-3.2-0.2 c-1.1-0.1-2.1-0.1-3.2-0.2c-2.1-0.1-4.2-0.1-6.4,0C133.5,246.1,129.3,246.8,125.1,248.2z"/> <path class="st2" d="M127.2,295c-0.2-1-0.5-1.9-0.7-2.9c-0.2-1-0.4-1.9-0.7-2.9c-0.4-1.9-0.8-3.8-1.2-5.7c-0.4-1.9-0.8-3.8-1.2-5.8 c-0.4-1.9-0.8-3.8-1.1-5.8l0.5,1l-1.6-1.5l-0.4-0.4l-0.1-0.7c-0.1-0.6-0.2-1.3-0.3-1.9c-0.1-0.6-0.2-1.3-0.3-2 c0-0.4-0.1-0.7-0.1-1.2c0-0.4,0-0.7,0-1.1c0-0.7,0.1-1.3,0.2-2l0.4,1.6l-0.5-0.6c-0.2-0.2-0.3-0.4-0.5-0.7l-0.1-0.1l-0.1-0.2l0,0 l0-0.1c0-0.1-0.1-0.1-0.1-0.2l0,0l0-0.1c0-0.1,0-0.2-0.1-0.2c0-0.2-0.1-0.3-0.1-0.5c0,0,0,0,0,0l0,0.1c0,0.1,0,0.1,0,0.2 c0,0.1,0.1,0.3,0.1,0.4c0,0.1,0,0.1,0.1,0.2l0,0.1c0,0,0,0.1,0.1,0.1c0,0.1,0.1,0.1,0.1,0.2l0.1,0.1c0,0,0.1,0.1,0.1,0.1l0,0l0,0 c-0.1,0-0.1-0.1-0.2-0.2c-0.4-0.4-0.7-1-0.9-1.6c-0.1-0.3-0.1-0.6-0.1-0.8l0-0.5l0-0.7c0-0.5-0.1-1.1-0.1-1.6c0-0.6,0-1.2,0.1-1.9 c0-0.2,0.1-0.4,0.1-0.6c0-0.1,0.1-0.2,0.1-0.3l0.1-0.2l0,0c0-0.1,0.1-0.3,0.1-0.5c0.2-0.8,0.3-1.8,0.4-2.7l0,0.4 c-0.2-3.7-0.3-7.4-0.5-11.2c-0.1-1.9-0.1-3.7-0.2-5.6c0-0.4,0-1.1,0-1.6l0-0.8l0.1-0.7c0.1-1,0.2-2,0.3-2.9c0.3-1.9,0.6-3.8,1-5.7 c0.4-1.9,0.8-3.8,1.4-5.7c0.1-0.2,0.1-0.5,0.2-0.7l0.3-0.7c0.2-0.5,0.4-1,0.6-1.5c0-0.1,0.1-0.3,0.2-0.4l0.2-0.4l0.2-0.4l0.2-0.3 c0.3-0.4,0.5-0.9,0.8-1.3c1.2-1.7,2.5-3.2,3.9-4.6c0.7-0.7,1.5-1.4,2.3-2c0.4-0.3,0.9-0.6,1.3-0.9c0.4-0.3,0.9-0.5,1.3-0.8 c0.9-0.5,1.7-0.9,2.6-1.3c0.9-0.4,1.8-0.8,2.8-1.1c0.5-0.2,1-0.3,1.5-0.5l0.4-0.1l0.5-0.1c0.3,0,0.6-0.1,0.8-0.1 c1.1,0,2.1,0,3.1,0.2c0.5,0.1,1,0.1,1.5,0.2c0.2,0,0.5,0.1,0.7,0.1l0.2,0c0,0,0,0,0,0c0,0,0.1,0,0.2,0c0.4,0,0.8,0,1.3,0 c0.4,0,0.9,0,1.3,0c1.8,0,3.6-0.1,5.5-0.2c1.8-0.1,3.7-0.2,5.5-0.4c1.8-0.2,3.6-0.4,5.4-0.7c1.8-0.3,3.6-0.5,5.4-1 c-0.8,0.5-1.7,0.8-2.5,1.2c-0.9,0.3-1.7,0.7-2.6,1c-0.9,0.3-1.8,0.6-2.7,0.8c-0.9,0.3-1.8,0.5-2.7,0.7c-1.8,0.5-3.7,0.8-5.5,1.2 c-1.8,0.3-3.7,0.6-5.5,0.9c-0.5,0.1-0.9,0.1-1.4,0.2c-0.5,0-0.9,0.1-1.5,0.1c-0.2,0-0.2,0-0.5,0l-0.3,0l-0.2,0c-0.2,0-0.4,0-0.6-0.1 c-0.4,0-0.9-0.1-1.3-0.1c-0.8,0-1.7,0-2.4,0.1c-0.2,0-0.4,0.1-0.5,0.1l-0.2,0.1l-0.2,0.1c-0.3,0.1-0.7,0.3-1.1,0.4 c-1.5,0.7-3.1,1.5-4.5,2.5c-0.4,0.2-0.7,0.5-1.1,0.7c-0.3,0.2-0.6,0.5-0.9,0.7c-0.6,0.5-1.2,1.1-1.8,1.7c-1.2,1.2-2.2,2.6-3.1,4 c-0.2,0.4-0.4,0.7-0.6,1.1l-0.2,0.3l-0.1,0.2l-0.1,0.2c0,0.1-0.1,0.1-0.1,0.2c-0.1,0.4-0.3,0.7-0.4,1.1l-0.2,0.6 c-0.1,0.2-0.1,0.4-0.2,0.6c-0.5,1.7-0.9,3.4-1.2,5.2c-0.4,1.8-0.7,3.6-0.9,5.3c-0.1,0.9-0.2,1.8-0.3,2.6l-0.1,0.6l0,0.6 c0,0.2,0,0.4,0,0.6c0,0.1,0,0.2,0,0.3l0,0.4c0,1.9,0.1,3.7,0.1,5.6c0.1,3.7,0.1,7.5,0.1,11.2l0,0.3l0,0.1c-0.2,1.1-0.4,2.1-0.7,3.2 c-0.1,0.3-0.2,0.6-0.3,0.9l-0.1,0.1c0,0,0,0,0,0c0,0,0,0.1,0,0.2c-0.1,0.3-0.1,0.7-0.1,1.1c0,0.4,0,0.9,0,1.4l0,0.8l0,0.2v0v0 c0,0,0,0,0,0c0,0,0,0,0-0.1c0-0.1-0.1-0.2-0.2-0.3c0,0,0,0,0,0l0.1,0.1c0,0,0.1,0.1,0.1,0.1l0.1,0.1c0.1,0.1,0.1,0.2,0.2,0.3 c0,0,0.1,0.1,0.1,0.1l0,0l0,0.1c0,0.1,0,0.1,0.1,0.2c0,0.1,0.1,0.3,0.1,0.4c0,0.1,0,0.1,0,0.2l0,0.1c0,0,0,0.1,0,0 c0-0.1,0-0.3,0-0.4c0-0.1,0-0.1-0.1-0.2l0-0.1l0,0c0,0,0-0.1,0-0.1l0,0c0,0,0,0,0,0l0,0c0.1,0.1,0.2,0.4,0.3,0.5l0.4,0.6l0.5,0.8 l-0.1,0.8c-0.1,0.6-0.2,1.2-0.3,1.8c0,0.3-0.1,0.6-0.1,0.8c0,0.1,0,0.5,0,0.7c0,0.6,0,1.2,0.1,1.8l0.1,1.8l-0.5-1.1l1.5,1.7l0.5,0.5 l0,0.5c0.2,1.9,0.3,3.9,0.5,5.9c0.1,2,0.3,3.9,0.4,5.9c0.1,2,0.2,3.9,0.3,5.9c0.1,1,0.1,2,0.1,2.9C127.1,293,127.2,294,127.2,295z"/> <path class="st2" d="M312.7,296.1c0-1,0.1-2,0.1-2.9c0-1,0.1-2,0.1-2.9c0.1-2,0.2-3.9,0.3-5.9c0.1-2,0.3-3.9,0.4-5.9 c0.2-2,0.3-3.9,0.5-5.9l0-0.5l0.5-0.5l1.5-1.7l-0.5,1.1l0.1-1.8c0-0.6,0.1-1.2,0.1-1.8c0-0.3,0-0.6,0-0.7c0-0.2-0.1-0.5-0.1-0.8 c-0.1-0.6-0.2-1.2-0.3-1.8l-0.1-0.8l0.5-0.8l0.4-0.6c0.1-0.2,0.2-0.4,0.3-0.5l0,0c0,0,0,0,0,0l0,0c0,0,0,0.1,0,0.1l0,0l0,0.1 c0,0.1,0,0.1-0.1,0.2c0,0.1,0,0.3,0,0.4c0,0,0,0,0,0l0-0.1c0-0.1,0-0.1,0-0.2c0-0.1,0.1-0.3,0.1-0.4c0-0.1,0-0.1,0.1-0.2l0-0.1l0,0 c0,0,0-0.1,0.1-0.1c0.1-0.1,0.1-0.2,0.2-0.3l0.1-0.1c0-0.1,0.1-0.1,0.1-0.1l0.1-0.1c0,0,0,0,0,0c0,0-0.1,0.2-0.2,0.3 c0,0,0,0.1,0,0.1c0,0,0,0,0,0v0v0l0-0.2l0-0.8c0-0.5,0-0.9,0-1.4c0-0.4-0.1-0.8-0.1-1.1c0-0.1,0-0.1,0-0.2c0,0,0,0,0,0l-0.1-0.1 c-0.1-0.4-0.2-0.6-0.3-0.9c-0.3-1.1-0.5-2.1-0.7-3.2l0-0.1l0-0.3c0-3.7,0-7.5,0.1-11.2c0-1.9,0.1-3.7,0.1-5.6l0-0.4 c0-0.1,0-0.2,0-0.3c0-0.2,0-0.3,0-0.6l0-0.6l-0.1-0.6c-0.1-0.9-0.2-1.8-0.3-2.6c-0.2-1.8-0.5-3.6-0.9-5.3c-0.4-1.8-0.7-3.5-1.2-5.2 c-0.1-0.2-0.1-0.4-0.2-0.6l-0.2-0.6c-0.1-0.4-0.3-0.8-0.4-1.1c0-0.1-0.1-0.2-0.1-0.2l-0.1-0.2l-0.1-0.2l-0.2-0.3 c-0.2-0.4-0.4-0.7-0.6-1.1c-0.9-1.4-1.9-2.7-3.1-4c-0.6-0.6-1.2-1.2-1.8-1.7c-0.3-0.3-0.6-0.5-0.9-0.7c-0.3-0.2-0.7-0.5-1.1-0.7 c-1.5-0.9-3-1.8-4.5-2.5c-0.4-0.2-0.7-0.3-1.1-0.4l-0.2-0.1l-0.2-0.1c-0.2,0-0.3-0.1-0.5-0.1c-0.7-0.1-1.6-0.1-2.4-0.1 c-0.4,0-0.8,0-1.3,0.1c-0.2,0-0.4,0-0.6,0.1l-0.2,0l-0.3,0c-0.2,0-0.3,0-0.5,0c-0.6,0-1-0.1-1.5-0.1c-0.5-0.1-0.9-0.1-1.4-0.2 c-1.9-0.3-3.7-0.6-5.5-0.9c-1.8-0.3-3.7-0.7-5.5-1.2c-0.9-0.2-1.8-0.5-2.7-0.7c-0.9-0.3-1.8-0.5-2.7-0.8c-0.9-0.3-1.8-0.6-2.6-1 c-0.9-0.3-1.7-0.7-2.5-1.2c1.8,0.5,3.6,0.8,5.4,1c1.8,0.3,3.6,0.5,5.4,0.7c1.8,0.2,3.6,0.3,5.5,0.4c1.8,0.1,3.7,0.2,5.5,0.2 c0.5,0,0.9,0,1.3,0c0.4,0,0.9,0,1.3,0c0.1,0,0.2,0,0.2,0c0,0,0,0,0,0l0.2,0c0.2-0.1,0.5-0.1,0.7-0.1c0.5-0.1,1-0.2,1.5-0.2 c1-0.1,2-0.2,3.1-0.2c0.3,0,0.6,0,0.8,0.1l0.5,0.1l0.4,0.1c0.6,0.1,1.1,0.3,1.5,0.5c1,0.3,1.9,0.7,2.8,1.1c0.9,0.4,1.8,0.8,2.6,1.3 c0.4,0.2,0.9,0.5,1.3,0.8c0.5,0.3,0.9,0.6,1.3,0.9c0.8,0.6,1.6,1.3,2.3,2c1.5,1.4,2.8,3,3.9,4.6c0.3,0.4,0.6,0.9,0.8,1.3l0.2,0.3 l0.2,0.4l0.2,0.4c0.1,0.1,0.1,0.3,0.2,0.4c0.2,0.5,0.4,1,0.6,1.5l0.3,0.7c0.1,0.2,0.1,0.5,0.2,0.7c0.6,1.9,1,3.8,1.4,5.7 c0.4,1.9,0.7,3.8,1,5.7c0.1,1,0.2,1.9,0.3,2.9l0.1,0.7l0,0.8c0,0.5,0,1.2,0,1.6c-0.1,1.9-0.1,3.7-0.2,5.6c-0.1,3.7-0.3,7.4-0.5,11.2 l0-0.4c0.1,0.9,0.2,1.9,0.4,2.7c0,0.2,0.1,0.4,0.1,0.5l0,0l0.1,0.2c0,0.1,0.1,0.2,0.1,0.3c0,0.2,0.1,0.4,0.1,0.6 c0.1,0.7,0.1,1.3,0.1,1.9c0,0.6,0,1.1-0.1,1.6l0,0.7l0,0.5c0,0.3-0.1,0.5-0.1,0.8c-0.2,0.6-0.5,1.2-0.9,1.6 c-0.1,0.1-0.2,0.2-0.2,0.2l0,0l0,0c0,0,0,0,0.1-0.1l0.1-0.1c0.1-0.1,0.1-0.1,0.1-0.2c0,0,0-0.1,0.1-0.1l0-0.1c0-0.1,0-0.1,0.1-0.2 c0-0.1,0.1-0.2,0.1-0.4c0-0.1,0-0.1,0-0.2l0-0.1c0,0,0-0.1,0,0c0,0.2,0,0.3-0.1,0.5c0,0.1,0,0.2-0.1,0.2l0,0.1l0,0 c0,0.1-0.1,0.1-0.1,0.2l0,0.1l0,0l-0.1,0.2l-0.1,0.1c-0.2,0.3-0.3,0.5-0.5,0.7l-0.5,0.6l0.4-1.6c0.1,0.7,0.1,1.3,0.2,2 c0,0.3,0,0.7,0,1.1c0,0.5,0,0.8-0.1,1.2c-0.1,0.7-0.2,1.3-0.3,2c-0.1,0.6-0.2,1.3-0.3,1.9l-0.1,0.7l-0.4,0.4l-1.6,1.5l0.5-1 c-0.4,1.9-0.7,3.8-1.1,5.8c-0.4,1.9-0.8,3.8-1.2,5.8c-0.4,1.9-0.8,3.8-1.2,5.7c-0.2,1-0.4,1.9-0.7,2.9 C313.2,294.2,313,295.2,312.7,296.1z"/> <path class="st2" d="M245.7,166.4c0.1,0.7,0.4,1.3,0.6,2c0.2,0.6,0.4,1.3,0.7,1.9c0.5,1.3,0.9,2.6,1.4,3.9l2.8,7.7l0.2,0.5l0.1,0.2 c0,0,0,0.1,0,0.1l0,0.1c0.1,0.1,0.2,0.3,0.3,0.5c0.3,0.3,0.7,0.7,1.2,1c0.5,0.3,1,0.7,1.5,1c0.5,0.3,1.1,0.7,1.7,1 c0.6,0.3,1.2,0.7,1.8,1.1c0.6,0.4,1.2,0.8,1.9,1.4l0.3,0.2l0.2,0.1l0.3,0.3c0.2,0.2,0.4,0.4,0.7,0.5c0.2,0.2,0.5,0.3,0.7,0.5 c0.2,0.2,0.5,0.3,0.7,0.5c2,1.2,4.3,2.2,6.8,3.1c1.2,0.5,2.5,0.9,3.8,1.4c1.3,0.5,2.5,1,3.8,1.5c2.5,1.1,5,2.2,7.4,3.4 c2.4,1.2,4.9,2.5,7.2,4.1c-2.8-0.2-5.5-0.6-8.2-1c-2.7-0.5-5.3-1.1-8-1.7c-1.3-0.3-2.6-0.7-3.9-1.1c-1.3-0.4-2.6-0.8-3.9-1.2 c-2.6-0.9-5.4-2-7.9-3.8c-0.3-0.2-0.6-0.5-0.9-0.7c-0.3-0.2-0.6-0.5-0.9-0.8c-0.3-0.3-0.6-0.5-0.8-0.8l-0.4-0.4l-0.2-0.2l-0.1-0.1 c-0.3-0.3-0.8-0.7-1.2-1.1c-0.5-0.4-1-0.8-1.5-1.2c-0.5-0.4-1.1-0.9-1.6-1.3c-0.5-0.5-1.1-1-1.6-1.6c-0.5-0.6-1.1-1.2-1.5-2 c-0.2-0.4-0.4-0.9-0.6-1.4l-0.1-0.2l0-0.1l-0.1-0.3l-0.1-0.5c-0.5-2.7-1.1-5.4-1.5-8.1c-0.2-1.4-0.4-2.7-0.6-4.1 c-0.1-0.7-0.1-1.4-0.2-2.1C245.7,167.8,245.7,167.1,245.7,166.4z"/> <path class="st0" d="M232.9,156.6c-0.4-0.4-4.4-3.2-4.9-3.6c-0.5-0.4-1.7-1-2.1-1c0,0,0,0-0.1,0c-1.1-0.3-2.3-0.5-2.9-0.3 c-0.8,0.2-1.6,0.6-2.2,0.6c-0.8,0-1.9-0.7-2.7-0.8c-1.1-0.1-2.1,0.5-3.1,1c-2.7,1.4-5.4,2.6-8.1,4l0.1,0c0,0,0.1,0,0.1,0l-0.4,0 c0.1,0,0.3,0,0.4,0c0.1,0,0.2,0.1,0.3,0.1c1.2,0.4,2.4,1.8,3,2.7c0.8,1.2,1.6,2.5,2.6,3.3c0.8,0.7,2,0.7,3.1,0.7 c1.8,0,3.6-0.1,5.4-0.1c1.5,0,4.3,0,5.8-0.4C230.3,161.9,231.9,159.6,232.9,156.6L232.9,156.6z"/> <path class="st2" d="M177.7,119.8c-0.7,4.5,0.1,9,2,12.8c0.5,0.9,1,1.8,1.6,2.7c0.6,0.8,1.3,1.7,2,2.6c0.7,0.9,1.5,1.8,2.1,2.9 c0.3,0.5,0.7,1.1,1,1.7c0.3,0.6,0.5,1.1,0.8,1.7c0.5,1.1,0.8,2.3,1.2,3.4c0.4,1.1,0.7,2.2,1,3.2c0.7,2,1.5,4,2.5,5.9 c1,1.9,2,3.8,3.2,5.5c1.2,1.8,2.5,3.4,3.9,5c1.4,1.5,2.9,3,4.6,4.2c1.6,1.3,3.4,2.4,5.2,3.3c3.7,1.9,7.7,3.2,11.9,3.5l1.6,0.1 c0.5,0,1,0,1.6,0c0.5,0,1,0,1.6-0.1c0.3,0,0.5,0,0.8-0.1l0.8-0.1l0.4,0l0.4-0.1l0.8-0.1c0.5-0.1,1-0.2,1.5-0.3c1-0.3,2-0.6,3-0.9 c1-0.4,2-0.8,3-1.3c1-0.5,1.9-1,2.8-1.6c0.9-0.6,1.8-1.2,2.7-1.9c0.9-0.7,1.7-1.5,2.5-2.2c-0.6,1-1.2,1.9-1.9,2.9 c-0.7,0.9-1.5,1.8-2.3,2.6c-0.8,0.8-1.7,1.6-2.7,2.3c-0.9,0.7-1.9,1.3-3,1.9c-4.1,2.3-8.9,3.5-13.7,3.5l-1.8,0l-1.8-0.2 c-0.6-0.1-1.2-0.2-1.8-0.3c-0.6-0.1-1.2-0.2-1.8-0.4c-2.4-0.5-4.6-1.3-6.8-2.3c-2.2-1-4.3-2.3-6.2-3.7c-1.9-1.5-3.7-3.1-5.4-4.9 c-1.6-1.8-3.1-3.7-4.4-5.7c-1.3-2-2.4-4.1-3.4-6.3c-1-2.2-1.8-4.4-2.4-6.7c-0.7-2.3-1-4.5-1.7-6.5c-0.3-1-0.6-1.9-1.1-2.8 c-0.5-0.9-1-1.8-1.6-2.8c-0.6-1-1.2-1.9-1.8-3c-0.6-1.1-1-2.2-1.4-3.4c-0.7-2.3-1-4.7-0.9-7.1C176.3,124.2,176.8,121.9,177.7,119.8z "/> <path class="st2" d="M318.7,168.4c1.2-0.3,2-0.6,2.7-0.8c0.9-0.4,1-0.5,2.4-1.1c2.9-1.4,5.7-3,8.4-4.8c2.7-1.8,5.2-3.8,7.5-6 c0.6-0.6,1.1-1.1,1.6-1.7c0.3-0.3,0.5-0.6,0.7-0.9l0.3-0.5l0.3-0.5c0.8-1.3,1.5-2.7,2-4.2c1-2.9,1.2-6.2,0.5-9 c-0.4-1.4-1-2.7-1.9-3.9c-0.9-1.1-2-2.1-3.3-2.8c-2.5-1.6-5.5-2.5-8.6-3.4l-9.3-2.8c-6.2-1.9-12.3-3.8-18.5-5.7l-9.2-2.9 c-3.1-1-6.2-1.9-9.2-2.9l-9.3-2.9c-1.6-0.5-3.2-1.1-4.8-1.8c-1.6-0.7-3.2-1.5-4.7-2.6c-0.8-0.5-1.5-1.2-2.2-1.9 c-0.7-0.7-1.3-1.5-1.9-2.3c-1.1-1.7-1.9-3.6-2.3-5.6c-0.4-1.9-0.4-3.8-0.3-5.6c0.1-1.8,0.3-3.5,0.5-5.2c0.2-1.6,0.4-3.2,0.6-4.8 c0.1-0.8,0.1-1.5,0.1-2.2c0-0.7,0-1.4-0.1-2.2c-0.3-2.9-1.1-5.8-2.4-8.5c-2.6-5.4-6.7-10.3-11.4-14.2c-4.7-3.9-10.2-7-16-8.9 s-12-2.7-18.1-2.1c-6.1,0.6-12.1,2.5-17.5,5.5c-2.7,1.5-5.3,3.3-7.6,5.4c-2.3,2.1-4.5,4.4-6.3,7c-7.3,10.3-10.1,24.3-6.5,37 c-1.2-3.1-2-6.3-2.4-9.6c-0.4-3.3-0.4-6.7,0-10c0.4-3.3,1.1-6.6,2.2-9.8c1.1-3.2,2.6-6.3,4.4-9.1c1.8-2.9,4-5.5,6.4-7.9 c2.4-2.4,5.1-4.5,8-6.2c5.7-3.5,12.2-5.9,18.9-6.8c6.7-0.9,13.6-0.2,20.1,1.7c6.5,2,12.6,5.2,17.9,9.5c2.7,2.2,5.1,4.6,7.3,7.2 c2.2,2.7,4.2,5.6,5.7,8.8c1.5,3.2,2.6,6.7,3,10.4c0.1,0.9,0.1,1.9,0.1,2.8c0,0.9-0.1,1.8-0.1,2.7c-0.2,1.8-0.4,3.4-0.6,5 c-0.2,1.6-0.4,3.2-0.5,4.7c-0.1,1.5,0,2.9,0.2,4.2c0.3,1.3,0.7,2.5,1.4,3.5c0.7,1,1.6,2,2.7,2.8c1.1,0.8,2.4,1.5,3.7,2.1 c1.4,0.6,2.8,1.1,4.3,1.6l9.2,3.1c3.1,1,6.1,2.1,9.2,3.1l9.2,3.1c6.1,2.1,12.2,4.2,18.3,6.3l9.1,3.2c1.5,0.5,3.1,1.1,4.6,1.8 c1.6,0.7,3.1,1.5,4.6,2.5c1.5,1,2.8,2.3,3.9,3.8c1.1,1.5,1.8,3.3,2.2,5c0.4,1.8,0.4,3.6,0.2,5.4c-0.2,1.8-0.7,3.5-1.3,5.1 c-0.6,1.6-1.5,3.1-2.5,4.5l-0.4,0.5l-0.4,0.5c-0.3,0.3-0.6,0.7-0.9,1c-0.6,0.6-1.2,1.2-1.8,1.7c-2.5,2.2-5.2,4.1-8,5.8 c-2.8,1.7-5.7,3.2-8.7,4.4c-1.5,0.6-1.6,0.7-3.2,1.1C320.4,168.1,319.9,168.2,318.7,168.4z"/> <path class="st2" d="M181.1,98.2c1.4-1.1,2.9-2.1,4.3-3.1c1.5-0.9,3-1.8,4.6-2.7c1.6-0.8,3.2-1.6,4.8-2.3c0.8-0.3,1.6-0.7,2.5-1 c0.8-0.3,1.7-0.7,2.5-1c6.7-2.4,13.8-3.8,20.9-4.3c7.1-0.5,14.3,0,21.2,1.4c0.9,0.2,1.7,0.4,2.6,0.6c0.9,0.2,1.7,0.4,2.6,0.6 c1.7,0.5,3.4,1.1,5.1,1.6c1.6,0.7,3.3,1.3,4.9,2c1.6,0.8,3.2,1.6,4.7,2.5c-1.7-0.3-3.5-0.6-5.2-1c-1.7-0.3-3.4-0.5-5.1-0.8 c-1.7-0.2-3.4-0.4-5.1-0.7c-0.9-0.1-1.7-0.2-2.5-0.2c-0.8-0.1-1.7-0.2-2.5-0.3c-6.8-0.6-13.5-0.6-20.2-0.2c-6.7,0.5-13.4,1.4-20,2.9 c-0.8,0.2-1.7,0.4-2.5,0.6c-0.8,0.2-1.7,0.4-2.5,0.6c-1.6,0.5-3.3,0.9-5,1.4c-1.6,0.5-3.3,1-5,1.5C184.4,97.1,182.8,97.6,181.1,98.2 z"/> <path class="st2" d="M263.4,105.5c-1.3-0.3-2.6-0.7-3.9-1l-1.9-0.5l-1-0.2l-1-0.2c-1.3-0.3-2.6-0.6-3.9-0.8l-1.9-0.4 c-0.6-0.1-1.3-0.2-1.9-0.4c-5.2-1-10.4-1.7-15.6-2.2c-1.3-0.1-2.6-0.2-3.9-0.3c-1.3-0.1-2.6-0.2-3.9-0.3c-1.3-0.1-2.6-0.1-3.9-0.2 l-2-0.1c-0.7,0-1.3,0-2,0l-2,0l-2,0c-1.3,0-2.6,0.1-3.9,0.1c-2.6,0.1-5.2,0.3-7.8,0.5c-2.6,0.2-5.2,0.4-7.9,0.7l-7.9,0.7 c-2.6,0.2-5.3,0.5-7.9,0.7l-4,0.3l-4,0.3c-5.3,0.4-10.6,0.7-15.9,0.9c-2.7,0.1-5.3,0.2-8,0.3c-2.7,0.1-5.3,0.1-8,0.1 c2.6-0.6,5.2-1.1,7.8-1.7c2.6-0.5,5.2-1,7.9-1.5c5.2-0.9,10.5-1.8,15.7-2.6l3.9-0.6l3.9-0.6c2.6-0.4,5.3-0.7,7.9-1.1 c2.6-0.3,5.3-0.7,7.9-1c2.7-0.3,5.3-0.6,8-0.8c1.3-0.1,2.7-0.2,4-0.3c1.3-0.1,2.7-0.1,4.1-0.2c1.4,0,2.7,0,4.1,0l2,0 c0.7,0,1.4,0.1,2,0.1c0.7,0,1.4,0.1,2,0.1l2,0.1c1.3,0.1,2.7,0.2,4,0.4c0.7,0.1,1.3,0.2,2,0.2l2,0.3c1.3,0.2,2.7,0.4,4,0.6 c5.3,1,10.5,2.3,15.7,4c0.6,0.2,1.3,0.4,1.9,0.6l1.9,0.7c1.3,0.5,2.5,1,3.8,1.5c0.6,0.2,1.2,0.5,1.9,0.8l1.8,0.8 c0.6,0.3,1.2,0.6,1.8,0.9C262.2,104.9,262.8,105.2,263.4,105.5z"/> <path class="st2" d="M318.5,168.4l0.2,0C318.7,168.4,318.6,168.4,318.5,168.4l-0.1,0l-0.4,0.1l-0.7,0.1l-1.5,0.2c-1,0.1-2,0.3-3,0.4 c-2,0.3-4,0.5-6,0.7c-4,0.4-8,0.8-12,1c-4,0.3-8,0.4-12,0.5c-4,0.1-8,0-12.1-0.2c-4-0.2-8-0.5-12.1-1.1c-4-0.6-8-1.5-11.9-3 c-1.9-0.7-3.9-1.7-5.6-2.9c-0.4-0.3-0.9-0.6-1.3-1c-0.2-0.2-0.4-0.3-0.6-0.5l-0.6-0.5l-2.2-2c-2.9-2.6-5.9-5.2-9-7.6 c-3.1-2.5-6.3-4.8-9.5-7.1c-3.2-2.3-6.5-4.6-9.8-6.7c-3.3-2.2-6.6-4.4-10-6.5l-5-3.2c-0.8-0.5-1.7-1-2.5-1.6c-0.8-0.5-1.7-1-2.5-1.5 c-13.5-8-28.3-13.8-43.6-17.3c-1-0.2-1.9-0.4-2.9-0.6l-2.9-0.6c-1-0.2-1.9-0.3-2.9-0.5l-1.4-0.2c-0.5-0.1-1-0.1-1.4-0.2 c-1.9-0.3-3.8-0.5-5.8-0.6c-1.9-0.1-3.8-0.2-5.7-0.1c-3.8,0.1-7.5,0.6-11,1.8c-3.5,1.1-6.6,2.9-9.1,5.4c-2.5,2.5-4.4,5.6-5.7,9 c-1.3,3.4-1.9,7.1-2.1,10.9c-0.1,1.9-0.1,3.8,0,5.7c0.1,1.9,0.3,3.8,0.6,5.7c0.6,3.8,1.5,7.5,2.8,11.1c2.5,7.2,6.3,14.1,11.3,20 c2.5,3,5.2,5.7,8.2,8.2c3,2.5,6.2,4.7,9.6,6.6c3.4,1.9,7,3.5,10.7,4.7c3.7,1.3,7.6,2.2,11.5,2.8c2,0.3,3.9,0.5,5.9,0.7 c2,0.1,4,0.2,5.9,0.1c4-0.1,7.9-0.6,11.9-1.4c-1.9,0.6-3.9,1-5.8,1.4c-2,0.4-4,0.7-6,0.8c-2,0.2-4,0.3-6,0.3c-2,0-4-0.1-6.1-0.3 c-8.1-0.8-16-3-23.3-6.6c-3.7-1.8-7.2-4-10.4-6.5c-3.3-2.5-6.3-5.3-9-8.4c-2.7-3.1-5.2-6.4-7.3-9.9c-2.1-3.5-3.9-7.2-5.4-11.1 c-0.7-1.9-1.4-3.9-1.9-5.9c-0.5-2-1-4-1.3-6c-0.4-2-0.6-4.1-0.8-6.1c-0.2-2.1-0.2-4.2-0.1-6.2c0.2-4.2,0.8-8.4,2.3-12.4 c0.4-1,0.8-2,1.2-3c0.5-1,1-1.9,1.5-2.9c1.1-1.9,2.5-3.6,4.1-5.2c3.1-3.2,7.1-5.4,11.2-6.8c4.1-1.4,8.4-2,12.6-2.1 c2.1-0.1,4.2,0,6.3,0.1c2.1,0.1,4.1,0.3,6.2,0.6c0.5,0.1,1,0.1,1.5,0.2l1.5,0.3c1,0.2,2,0.3,3,0.5l3,0.6c1,0.2,2,0.4,3,0.7 c15.9,3.6,31.1,9.9,45,18.4c0.9,0.5,1.7,1.1,2.6,1.6c0.8,0.6,1.7,1.1,2.5,1.7l5,3.3c3.3,2.2,6.6,4.5,9.9,6.8 c6.6,4.6,13,9.4,19.1,14.7c3.1,2.6,6,5.3,8.9,8.1l2.1,2.1c0.2,0.2,0.3,0.3,0.5,0.5c0.2,0.2,0.3,0.3,0.5,0.4c0.3,0.3,0.7,0.6,1.1,0.8 c1.5,1.1,3.2,2,4.9,2.7c3.5,1.5,7.4,2.4,11.2,3.2c3.9,0.7,7.8,1.2,11.8,1.6c4,0.3,7.9,0.5,11.9,0.6c4,0.1,8,0.1,12,0 c4-0.1,8-0.3,12-0.5c2-0.1,4-0.2,6-0.4l3-0.2L318.5,168.4z"/> <path class="st0" d="M189.3,335c-6.3,3-8.4,8.7-6.5,14.2c2.5,5.5,3.9,7.6,4.3,10.8c0.4,3.1,0.4,4.9-1.7,5.9 c-2.7,1.3-6.7-1.6-4.6-7.7c0.7-1.4-4.4,0.8-4.4,0.8c-2.8,6.5,1.7,13.8,10.5,9.6c5.8-2.8,6.5-7.1,5.7-11.8c-0.8-4.2-3.2-7-4.2-10.8 c-1.1-4.5-0.7-6.8,2-8.1c2.7-1.3,6.1,0.9,2.3,7.3c0.9,0.9,4.2-0.5,4.6-1.3C201.6,336.2,195.8,331.8,189.3,335z"/> <path class="st2" d="M215.7,342.5c-1,1.5-10.8,13.1-11.8,14.4c-0.7,0.9-1.4,1.8-1.7,1.5c-0.3-0.2,0.2-2.2,0.6-3.2 c0.4-1.2,1.6-5.2,3.1-9.7l3.9-0.7c0.4-1.2,0.6-1.8,0.6-1.8l-3.9,0.8c2-6.3,2.8-8.7,2.8-8.7l-5.2,1c0,0-0.7,2-2.8,8.7l-3.8,0.7 c0,0-0.2,0.7-0.6,1.8l3.8-0.7c-2.3,7.1-4.5,14.3-5,15.6c-1.2,3.8,0,5.2,2.2,4.8c1.4-0.3,3-1.4,5.4-4.6c2.2-3,12.6-16.2,13.3-17.3 C216.8,344.6,216.2,341.7,215.7,342.5z M238,338.4c-3.2,4.5-8.3,11.5-12.7,16.9c2.6-8.2,5.3-17,5.3-17l-5.2,1l-1.5,5 c0,0-0.1,0.1-0.1,0.1c-1.1,3.6-5.8,11-7.7,11.4c-1.9,0.4-1.3-1.9-1-2.9c0.9-2.9,4-12.5,4-12.5l-5.2,1c0,0-4.3,13.6-5.2,16.3 c-1.2,3.8,0.1,7.2,3.4,6.6c2.2-0.4,5.8-5,8.6-9.7l-2.5,8.1c-5.9,5.2-11.1,7.7-10.4,11.4c0.5,2.9,3.8,3.8,5.9,3.4 c4.2-0.8,5.4-3.7,7.3-8.9c0.4-1.1,1.6-4.8,3-9.3c4.7-5,10.1-11.2,14.9-18.5C239.1,340.4,238.6,337.6,238,338.4z M216.3,369 c-1.1,3.5-1.6,6.1-2.9,6.3c-0.7,0.1-1.3-0.1-1.5-1.2c-0.3-1.5,1.8-4,5.2-7.5L216.3,369z M249.5,336.2c-1,1.5-9.2,12.8-10.2,14.1 c-0.7,0.9-1.4,1.8-1.7,1.5c-0.3-0.2,0.2-2.2,0.6-3.2c0.9-2.9,7.6-24.2,7.6-24.2l-5.2,1c0,0-8.6,27.4-9.5,30.1 c-1.2,3.8,0,5.2,2.2,4.8c1.4-0.3,3-1.4,5.4-4.6c2.2-3,11-15.9,11.7-17C250.6,338.3,250,335.4,249.5,336.2z M268,332.8 c-4.7,10-10.3,19-16,20c-2.8,0.5-4.3-0.9-4.2-3.7c0.5,0.3,1.2,0.6,1.9,0.7c3,0.4,6-1.8,8.2-5.8c3.6-6.8-0.2-10.7-5-9.9 c-2.9,0.5-6.9,3.9-9.5,10.5c-3.2,8-0.4,13.9,7.7,12.4c8.1-1.5,14.5-13.2,17.9-21.9C269.2,334.6,268.4,331.9,268,332.8z M254.4,337.7 c1.7-0.3,0.6,3.9-1.2,6c-1.3,1.6-2.9,3.2-4.8,2.2c0.1-0.2,0.1-0.3,0.2-0.5C250.1,341.5,252.7,338,254.4,337.7z"/> <path class="st0" d="M155.7,282.4c-0.3-0.4-0.8-0.6-1.3-0.5l-16.1,3l-8.3,1.5l-14.2,2.7c-0.8,0.2-1.5,0.8-1.8,1.6l-1.3,4.4 c-0.1,0.4,0,0.8,0.3,1.1c0.3,0.3,0.7,0.5,1.1,0.4l13.5-2.5c-2.2,7.1-5.4,17.3-7.3,22.9c-25,7.8-26.8,29.9-14.5,27.6 c7.8-1.4,15.6-6,21.6-23.5c0.1-0.2,0.2-0.6,0.4-1l9.6-1.8c1.1-0.2,2-0.9,2.4-1.9l1.4-4.8c0.2-0.5,0.1-1-0.2-1.4 c-0.3-0.4-0.9-0.5-1.3-0.5l-9.3,1.7c2-6.2,4.2-12.9,6.2-18.9l16.1-3c1.2-0.2,2.1-1,2.4-2.2l1.1-3.6 C156.1,283.3,156,282.8,155.7,282.4z M105.7,338.6c-4.7,0.9-0.2-11.5,12.9-16.6C114.2,333.8,109,338,105.7,338.6z"/> <path class="st2" d="M189.5,295.3c-1.6,2.4-14.6,20.5-16.4,22.6c-1.2,1.4-2.1,2.8-2.7,2.4c-0.5-0.3,0.4-3.5,0.9-5.1 c1.5-4.7,6.4-20.1,6.4-20.1l-8.4,1.6c0,0-0.8,2.7-2,6.4c-1.2-3-3.9-5.4-6.9-4.8c-4.6,0.9-10.7,5.9-16,18.6 c-5.4,12.7-1.6,20.8,5.5,19.4c3.6-0.7,6.9-3.9,9.4-7.6c-0.7,4.2,1.2,5.6,4.2,5.1c2.2-0.4,4.9-2.2,8.6-7.4 c3.5-4.8,17.6-25.5,18.7-27.3C191.2,298.6,190.3,294,189.5,295.3z M154.2,327c-2.7,0.5-3-4.2-0.7-10.5c2.4-6.3,6.4-11.9,9.2-12.4 c2.7-0.5,3,4.2,0.7,10.5C161,321,156.9,326.5,154.2,327z M212.6,291c-5.8,11.4-11.8,17.4-16.8,20.9c0.1-1.2,0.2-2.5,0.1-3.9 c0.1-4.1,0.1-10.9,0.1-10.9s8.1-10.1-0.9-7.7c-9.1,2.3-7.7,12.7-7.6,21.2c0,2.6-0.1,4.5-0.3,6.2c-6.4,3-12.4,5.4-12.3,9.2 c0,4.7,4.8,4.9,8.1,4.3c5.4-1,10.4-3.7,12.3-13.6c6.2-4.6,15.1-14.2,18.5-22.2C214,293.7,213.6,289.7,212.6,291z M180.8,326 c0-1.1,2.2-2.4,5-3.9c-0.5,1.2-1,2-1.5,3C183.4,327.1,180.8,328,180.8,326z M249.6,284.1c-1.6,2.4-14.6,20.5-16.4,22.6 c-1.1,1.4-2.1,2.8-2.7,2.4c-0.5-0.3,0.3-3.5,0.9-5.1c1.5-4.7,2.2-7.1,3.1-9.8c2.3-7.3-1.4-9.4-5.4-8.7c-2.5,0.5-9.7,4.2-17.7,19.9 l11.5-36.3l-8.3,1.5l-18.2,57l8.3-1.5c4.5-13.9,16.1-29.7,19.1-30.2c1.8-0.3,1.6,2.1,0.1,6.6c-1.5,4.9-2.6,8.2-4,12.5 c-1.9,6,0.1,8.3,3.5,7.6c2.2-0.4,4.9-2.2,8.6-7.4c3.5-4.8,17.6-25.5,18.7-27.3C251.3,287.4,250.4,282.8,249.6,284.1z M267.9,280.7 c-1.6,2.4-14.7,20.5-16.4,22.6c-1.2,1.4-2.2,2.8-2.7,2.4c-0.5-0.3,0.4-3.5,0.9-5.1c1.5-4.7,6.4-20.1,6.4-20.1l-8.4,1.6 c0,0-8,25.2-9.4,29.6c-2,6,0.1,8.3,3.5,7.6c2.2-0.4,4.8-2.2,8.6-7.4c3.5-4.8,17.6-25.5,18.8-27.3C269.7,284,268.8,279.4,267.9,280.7 z M253.6,274c3.2-0.6,6.5-3.9,7.3-7.4c0.8-3.5-1.1-5.8-4.3-5.2c-3.2,0.6-6.5,3.9-7.3,7.4C248.4,272.3,250.4,274.6,253.6,274z M297.7,276.8c-0.9,1.8-7.9,12.5-13,12.5c0.4-2.2,0.3-4,0.3-5.5c-0.1-3.7-1.6-8-4.5-7.5c-1.4,0.3-2.6,1.3-3.6,2.8 c-0.3-1.2-0.9-2.3-1.8-2.1c-4.7,0.9-11.3,5.7-16.1,18.7c-4.8,13,0.5,20.4,7.6,19c5.8-1.1,11.2-6.3,15.4-16c0.4-1.1,0.8-2.2,1.2-3.2 c8.4-0.2,17.1-16.1,17.5-16.7C301.1,278.1,298.7,274.8,297.7,276.8z M268.9,305.7c-2.7,0.5-3-4.2-0.7-10.5c1.7-4.8,4.5-9.1,6.9-11.1 c-0.5,3,0.1,6.3,2.3,8.7C275.6,298.3,272.5,305,268.9,305.7z M337.6,267.7c-1.6,2.4-14.7,20.5-16.4,22.6c-1.1,1.4-2.1,2.8-2.7,2.4 c-0.5-0.3,0.4-3.5,0.9-5.1c1.5-4.7,2.1-6.4,2.9-9.1c2.6-8.4-1.1-10.1-5.2-9.3c-2.5,0.5-9.7,4.1-17.7,19.9l5.6-17.6l-8.3,1.5 l-12.2,38.3l8.3-1.5l0.1-0.2l-0.1,0.2c4.5-13.9,16.1-29.7,19.1-30.2c1.8-0.3,1.5,2.1,0.1,6.6c-1.6,4.9-2.6,8.2-4,12.5 c-2,6,0.1,8.3,3.5,7.6c2.2-0.4,4.8-2.2,8.6-7.4c3.5-4.8,17.5-25.5,18.7-27.3C339.4,271,338.4,266.4,337.6,267.7z"/> </svg>